<?xml version="1.0" encoding="utf-8"?>
<!-- Generator: Adobe Illustrator 25.0.1, SVG Export Plug-In . SVG Version: 6.00 Build 0)  -->
<svg version="1.0" id="katman_1" xmlns="http://www.w3.org/2000/svg" xmlns:xlink="http://www.w3.org/1999/xlink" x="0px" y="0px"
	 viewBox="0 0 238.4 160.8" style="enable-background:new 0 0 238.4 160.8;" xml:space="preserve">
<style type="text/css">
	.st0{fill:#1D1D1B;}
	.st1{fill:#9B65C3;}
	.st2{fill:#BE63C5;}
	.st3{fill:#BF63C6;}
	.st4{fill:#3278B1;}
	.st5{fill:#3278B2;}
	.st6{fill:#45A4EC;}
	.st7{fill:#19BB7D;}
	.st8{fill:#08C7FB;}
	.st9{fill:#59F2F6;}
	.st10{fill:#DA3757;}
	.st11{fill:#D33C4E;}
	.st12{fill:#EE5A24;}
	.st13{fill:#8BDF55;}
	.st14{fill:#25C16F;}
	.st15{fill:#FFBB00;}
	.st16{fill:#FFA800;}
</style>
<g>
	<g>
		<path class="st0" d="M67.8,61.4c-5,0-6.8,3.5-6.8,6.8v2h-1.1c-0.8,0-1.4,0.6-1.4,1.4c0,0.8,0.6,1.4,1.4,1.4H61v13.8
			c0,0.8,0.6,1.4,1.4,1.4c0.8,0,1.4-0.6,1.4-1.4V72.9H67c0.8,0,1.4-0.6,1.4-1.4c0-0.8-0.6-1.4-1.4-1.4h-3.2v-2c0-1.8,0.7-4,3.9-4
			c0.8,0,1.4-0.6,1.4-1.4S68.6,61.4,67.8,61.4z M79.1,69.7c-2.2,0-4,0.9-5,2.4v-0.8c0-0.8-0.6-1.4-1.4-1.4c-0.8,0-1.5,0.6-1.5,1.4
			v15.4c0,0.8,0.6,1.4,1.4,1.4s1.4-0.6,1.4-1.4v-8.5c0-3.6,1.9-5.7,5-5.7c0.8,0,1.4-0.6,1.4-1.4C80.6,70.4,79.9,69.7,79.1,69.7z
			 M96.9,77.3c0-0.8-0.1-3-1.4-4.8c-1.3-1.9-3.3-2.9-6-2.9c-5.1,0-8,3.4-8,9.3c0,6.1,2.9,9.4,8.4,9.4c3.7,0,5.7-1.8,6.1-2.2
			c0.2-0.2,0.5-0.5,0.5-1c0-0.7-0.6-1.3-1.3-1.3c-0.4,0-0.6,0.1-0.8,0.3c-1.1,0.8-2.3,1.6-4.4,1.6c-3.3,0-5.4-2.2-5.5-5.7h10.7
			C96.9,79.9,96.9,78.3,96.9,77.3z M89.5,72.3c3,0,4.5,1.7,4.6,5h-9.7C84.7,74.1,86.5,72.3,89.5,72.3z M106.7,77.5
			c-2.2-0.7-4-1.4-4-3c0-1.8,2-2,3.1-2c2.1,0,3.1,0.7,4,1.5c0.3,0.3,0.6,0.4,1,0.4c0.7,0,1.3-0.6,1.3-1.3c0-0.4-0.2-0.7-0.3-0.9
			c-1.2-1.6-3.3-2.5-5.9-2.5c-3.7,0-6,1.8-6,4.8c0,3.6,3.2,4.7,6,5.7c2.1,0.7,4,1.3,4,2.9c0,2.1-2.4,2.5-3.8,2.5
			c-1.9,0-3.4-0.6-4.6-1.8c-0.4-0.4-0.7-0.4-1-0.4c-0.7,0-1.3,0.6-1.3,1.3c0,0.3,0.1,0.5,0.3,0.9c1.1,1.4,3.6,2.8,6.7,2.8
			c4.2,0,6.7-2,6.7-5.2C112.6,79.5,109.5,78.5,106.7,77.5z M124,69.6c-2,0-3.8,0.8-4.8,2.1v-9.9c0-0.8-0.6-1.4-1.4-1.4
			s-1.4,0.6-1.4,1.4v24.9c0,0.8,0.6,1.4,1.4,1.4s1.4-0.6,1.4-1.4v-9.4c0-3.4,1.6-5.1,4.8-5.1c3.1,0,4.3,1.4,4.3,4.8v9.6
			c0,0.8,0.6,1.4,1.4,1.4s1.4-0.6,1.4-1.4v-10C131.2,72,128.8,69.6,124,69.6z M155.4,69.9c-0.6,0-1.1,0.4-1.4,1l-4.1,11.8l-3.4-11.8
			c-0.1-0.5-0.6-1-1.4-1c-0.7,0-1.2,0.5-1.4,1l-3.4,11.8l-4.1-11.9c-0.2-0.6-0.7-0.9-1.4-0.9c-0.8,0-1.4,0.6-1.4,1.4
			c0,0.2,0,0.4,0.1,0.6l5.6,15.3c0.2,0.6,0.7,0.9,1.4,0.9c0.7,0,1.2-0.4,1.4-1l3.3-11.2l3.3,11.2c0.2,0.6,0.8,1,1.4,1
			c0.6,0,1.1-0.4,1.4-1l5.6-15.3c0.1-0.2,0.1-0.4,0.1-0.6C156.9,70.5,156.2,69.9,155.4,69.9L155.4,69.9z M166,69.6
			c-5.3,0-8.2,3.3-8.2,9.3s2.9,9.4,8.2,9.4s8.2-3.3,8.2-9.4C174.2,73,171.3,69.6,166,69.6z M166,85.7c-3.5,0-5.3-2.2-5.3-6.7
			c0-4.4,1.8-6.7,5.3-6.7s5.3,2.2,5.3,6.7C171.2,83.5,169.5,85.7,166,85.7z M185.4,69.7c-2.2,0-4,0.9-5,2.4v-0.8
			c0-0.8-0.6-1.4-1.4-1.4c-0.8,0-1.4,0.6-1.4,1.4v15.4c0,0.8,0.6,1.4,1.4,1.4c0.8,0,1.4-0.6,1.4-1.4v-8.5c0-3.6,1.9-5.7,5-5.7
			c0.8,0,1.4-0.6,1.4-1.4C186.8,70.4,186.2,69.7,185.4,69.7z M196.5,77.3l6-4.8c0.5-0.4,0.6-0.9,0.6-1.2c0-0.8-0.6-1.4-1.4-1.4
			c-0.2,0-0.6,0-1,0.4l-8.6,7V61.8c0-0.8-0.6-1.4-1.4-1.4c-0.8,0-1.4,0.6-1.4,1.4v24.9c0,0.8,0.6,1.4,1.4,1.4c0.8,0,1.4-0.6,1.4-1.4
			v-6l2-1.6l6.6,8.4c0.4,0.4,0.8,0.7,1.2,0.7c0.8,0,1.4-0.6,1.4-1.4c0-0.2,0-0.6-0.3-0.9L196.5,77.3z M212.9,77.5
			c-2.2-0.7-4-1.4-4-3c0-1.8,2-2,3.1-2c2.1,0,3.1,0.7,4,1.5c0.3,0.3,0.6,0.4,1,0.4c0.7,0,1.3-0.6,1.3-1.3c0-0.4-0.2-0.7-0.3-0.9
			c-1.2-1.6-3.3-2.5-5.9-2.5c-3.7,0-6,1.8-6,4.8c0,3.6,3.2,4.7,6,5.7c2.1,0.7,4,1.3,4,2.9c0,2.1-2.4,2.5-3.8,2.5
			c-1.9,0-3.4-0.6-4.6-1.8c-0.4-0.4-0.7-0.4-1-0.4c-0.7,0-1.3,0.6-1.3,1.3c0,0.3,0.1,0.5,0.3,0.9c1.1,1.4,3.6,2.8,6.7,2.8
			c4.2,0,6.7-2,6.7-5.2C218.8,79.5,215.7,78.5,212.9,77.5z"/>
	</g>
	<path class="st1" d="M19.4,85.9c0.5,3.7,2.3,7,4.8,9.5l5.8-5.8c0-5.9,3.1-11.6,8.5-14.8L19.4,85.9z"/>
	<path class="st1" d="M30,89.6c-2.9,0-5.8-0.7-8.5-2.3c-0.7-0.4-1.4-0.9-2.1-1.4c0.5,3.7,2.3,7,4.8,9.5C24.2,95.4,30,89.6,30,89.6z"
		/>
	<path class="st2" d="M30,89.6l-5.8,5.8c2.5,2.5,5.8,4.3,9.5,4.8l11.1-19.1C41.6,86.5,35.9,89.6,30,89.6z"/>
	<path class="st3" d="M32.3,98.1c-1.6-2.7-2.3-5.6-2.3-8.5l-5.8,5.8c2.5,2.5,5.8,4.3,9.5,4.8C33.2,99.6,32.7,98.9,32.3,98.1z"/>
	<path class="st4" d="M51.7,67.2l-13.2,7.6c-5.5,3.2-11.9,2.9-17,0c-1.5,2.5-2.3,5.4-2.3,8.6c0,0.9,0.1,1.7,0.2,2.5
		c0.7,0.5,1.4,1,2.1,1.4c2.7,1.6,5.6,2.3,8.5,2.3l22-22C51.9,67.4,51.8,67.3,51.7,67.2z"/>
	<path class="st5" d="M21.5,87.3c2.7,1.6,5.6,2.3,8.5,2.3c0-5.9,3.1-11.6,8.5-14.8L19.4,85.9C20,86.4,20.7,86.9,21.5,87.3z"/>
	<path class="st6" d="M21.5,74.8c-1.5,2.5-2.3,5.4-2.3,8.6c0,0.9,0.1,1.7,0.2,2.5l19.1-11.1C33.1,78,26.6,77.8,21.5,74.8z"/>
	<path class="st7" d="M52,67.6c-0.1-0.1-0.2-0.2-0.4-0.3c-0.2-0.1-0.3-0.3-0.5-0.4c-0.6-0.4-1.4-0.6-2.1-0.6H36.2
		c-6.3,0-11.8,3.4-14.8,8.5c5.1,2.9,11.6,3.2,17,0c-5.5,3.2-8.5,8.9-8.5,14.8c5.9,0,11.6-3.1,14.8-8.5l7.6-13.2
		C52.3,67.8,52.2,67.7,52,67.6z"/>
	<path class="st8" d="M38.5,74.8l13.2-7.6c-0.2-0.1-0.3-0.3-0.5-0.4l-29.7,8C26.6,77.8,33.1,78,38.5,74.8z"/>
	<path class="st9" d="M49,66.3H36.2c-6.3,0-11.8,3.4-14.8,8.5l29.7-8C50.5,66.5,49.8,66.3,49,66.3z"/>
	<path class="st10" d="M44.8,81.1l7.6-13.2c-0.1-0.1-0.2-0.2-0.3-0.4l-22,22c0,2.9,0.7,5.8,2.3,8.5c0.4,0.7,0.9,1.4,1.4,2.1
		c0.8,0.1,1.7,0.2,2.5,0.2c3.1,0,6-0.8,8.5-2.3C41.8,93,41.6,86.5,44.8,81.1z"/>
	<path class="st11" d="M30,89.6c0,2.9,0.7,5.8,2.3,8.5c0.4,0.7,0.9,1.4,1.4,2.1l11.1-19.1C41.6,86.5,35.9,89.6,30,89.6z"/>
	<path class="st12" d="M44.8,81.1l-11.1,19.1c0.8,0.1,1.7,0.2,2.5,0.2c3.1,0,6-0.8,8.5-2.3C41.8,93,41.6,86.5,44.8,81.1z"/>
	<path class="st13" d="M52.7,68.4c-0.1-0.2-0.2-0.4-0.4-0.5c-0.1-0.1-0.2-0.2-0.3-0.4c-0.1-0.1-0.2-0.2-0.4-0.3l-13.2,7.6
		c-5.5,3.2-8.5,8.9-8.5,14.8c5.9,0,11.6-3.1,14.8-8.5c-3.2,5.5-2.9,11.9,0,17c5.1-2.9,8.5-8.5,8.5-14.8V70.6
		C53.3,69.8,53.1,69.1,52.7,68.4z"/>
	<path class="st14" d="M51.7,67.2l-13.2,7.6C33,78,30,83.7,30,89.6l22-22C51.9,67.4,51.8,67.3,51.7,67.2z"/>
	<path class="st13" d="M30,89.6c5.9,0,11.6-3.1,14.8-8.5l7.6-13.2c-0.1-0.1-0.2-0.2-0.3-0.4L30,89.6z"/>
	<path class="st15" d="M52.4,67.9l-7.6,13.2c-3.2,5.5-2.9,11.9,0,17l8-29.7C52.6,68.3,52.5,68.1,52.4,67.9z"/>
	<path class="st16" d="M44.8,98.1c5.1-2.9,8.5-8.5,8.5-14.8V70.6c0-0.8-0.2-1.5-0.6-2.1L44.8,98.1z"/>
</g>
</svg>
